<?xml version="1.0" encoding="utf-8"?>
<!-- Generator: Adobe Illustrator 24.0.1, SVG Export Plug-In . SVG Version: 6.00 Build 0)  -->
<svg version="1.1" id="Layer_1" xmlns="http://www.w3.org/2000/svg" xmlns:xlink="http://www.w3.org/1999/xlink" x="0px" y="0px"
	 viewBox="0 0 283.5 283.5" style="enable-background:new 0 0 283.5 283.5;" xml:space="preserve">
<style type="text/css">
	.st0{fill:#FFFFFF;}
</style>
<path class="st0" d="M227.9,179.5c-28.6,34.5-57.1,69-86.1,104c-28.8-34.8-57.4-69.3-86.3-104.1c1.1-0.2,1.8-0.5,2.6-0.5
	c9.5,0,19,0,28.5,0.1c2.9,0.1,3.9-1,4-3.9c1.1-27,6.2-53.1,17.2-77.9c19.3-43.4,50.2-75,94.9-92.4c4.1-1.6,8.4-2.9,13.5-4.8
	c-1.3,3.9-2.4,6.9-3.4,9.9c-5.1,16.3-10.7,32.5-15.2,49c-7.5,27.3-11.9,55.2-10.9,83.7c0.4,10.6,1.9,21.1,2.9,31.7
	c0.3,2.9,1.6,3.8,4.7,3.8c11-0.2,21.9-0.1,32.9-0.1C227.5,178.5,227.7,179,227.9,179.5z"/>
</svg>
