<?xml version="1.0" encoding="utf-8"?>
<!-- Generator: Adobe Illustrator 24.0.1, SVG Export Plug-In . SVG Version: 6.00 Build 0)  -->
<svg version="1.1" id="Capa_1" xmlns="http://www.w3.org/2000/svg" xmlns:xlink="http://www.w3.org/1999/xlink" x="0px" y="0px"
	 viewBox="0 0 468 468" style="enable-background:new 0 0 468 468;" xml:space="preserve">
<style type="text/css">
	.st0{fill:#FFFFFF;}
</style>
<g>
	<g>
		<g>
			<path class="st0" d="M306,238.5c0-4.5-3.4-7.9-7.9-7.9c-4.5,0-7.9,3.4-7.9,7.9c0,31-25.1,56.1-56.1,56.1s-56.1-25.1-56.1-56.1
				c0-4.5-3.4-7.9-7.9-7.9s-7.9,3.4-7.9,7.9c0,36.8,27.5,67.8,64.1,71.7v21.2h-28.9c-4.5,0-7.9,3.4-7.9,7.9c0,4.5,3.4,7.9,7.9,7.9
				h73.6c4.5,0,7.9-3.4,7.9-7.9c0-4.5-3.4-7.9-7.9-7.9h-28.9v-21.2C278.5,306.2,306,275.3,306,238.5z"/>
		</g>
	</g>
	<g>
		<g>
			<path class="st0" d="M234,122.3c-24.4,0-44.2,19.9-44.2,44.2v71.7c0,24.6,19.9,44.2,44.2,44.5c24.4,0,44.2-19.9,44.2-44.2v-72
				C278.2,142.1,258.4,122.3,234,122.3z"/>
		</g>
	</g>
</g>
</svg>
