<?xml version="1.0" encoding="utf-8"?>
<!-- Generator: Adobe Illustrator 24.0.1, SVG Export Plug-In . SVG Version: 6.00 Build 0)  -->
<svg version="1.1" id="Layer_1" xmlns="http://www.w3.org/2000/svg" xmlns:xlink="http://www.w3.org/1999/xlink" x="0px" y="0px"
	 viewBox="0 0 198.6 198.6" style="enable-background:new 0 0 198.6 198.6;" xml:space="preserve">
<style type="text/css">
	.st0{fill:#FFFFFF;}
</style>
<g>
	<path class="st0" d="M128.7,139.6c0-0.2,0-0.3,0-0.5c0-2.1,0-4.2,0-6.2c0-0.4,0.1-0.6,0.6-0.6c2.5,0,5-0.1,7.5-0.2
		c1.7-0.1,2.6-0.8,2.7-2.6c0.2-2.6,0.3-5.2,0.3-7.8c0-14,0-38.9-0.1-52.9c0-0.8-0.9-2.1-1.7-2.2c-1.5-0.2-3.1-0.3-4.6-0.3
		c-10.3-0.1-20.6-0.1-30.8-0.1c-9.6,0-19.2,0-28.9,0c-4,0-8,0.2-12,0.3c-1.3,0-2,0.7-2.6,1.8C59,68.5,59,79.6,59,79.8
		c0,16.6,0,33.2,0,49.8c0,0.9,0.9,2.1,1.8,2.2c1.2,0.2,2.5,0.3,3.7,0.3c6.1,0.1,12.1,0.1,18.2,0.1c6.5,0,13.1,0,19.6,0
		c0.6,0,0.8,0.2,0.8,0.8c0,2,0,4,0,5.9c0,0.2,0,0.4,0,0.7c-0.3,0-0.5,0-0.7,0c-11.4,0-22.7,0-34.1-0.1c-2.2,0-4.4,0-6.6-0.1
		c-3.8-0.2-6.6-2.2-8.5-5.3c-1.1-1.7-1.5-3.6-1.5-5.6c0-14.8,0-29.5-0.1-44.3c0-1.7,0-14.3,0.2-16c0.6-4.4,4.3-8.2,8.7-9
		c0.8-0.1,1.6-0.1,2.4-0.1c13.7-0.1,27.3-0.1,41-0.1c10.7,0,21.5,0.1,32.2,0.1c5,0,9.6,3.7,10.6,8.7c0.1,0.6,0.2,12.2,0.2,12.8
		c0.1,11.2,0.1,22.3,0.1,33.5c0,4.8-0.2,9.7-0.1,14.5c0.1,4.4-3.2,10.1-9.8,10.7c-2.7,0.3-5.5,0.2-8.2,0.2
		C128.9,139.7,128.8,139.7,128.7,139.6z"/>
	<path class="st0" d="M117.7,114.3c1.5-3.7,2.3-7.5,3-11.5c1.1,0.1,2.2,0.2,3.3,0.3c0.3,0,0.6,0.1,0.9,0.2c2.8,0.4,5.3,2.7,5.3,6.2
		c0,3.9,0.1,7.9,0.1,11.8c0,1.5-0.4,2.9-1.1,4.3c-0.8,1.5-2,2.5-3.6,2.8c-0.4,0.1-0.6,0.2-0.6,0.7c0,3.3-0.1,6.5-0.1,9.8
		c0,0.2,0,0.4,0,0.7c-6.2,0-12.2,0-18.4,0c0-9.8,0-19.5,0-29.3c-0.3,0-0.5,0-0.8,0c-3.6,0-7.2,0-10.8-0.1c-1.2,0-2.3-0.1-3.5-0.3
		c-1.6-0.3-2.8-1.2-3.2-2.8c-0.1-0.4-0.1-0.9,0.1-1.3c0.5-1.7,1.8-2.6,3.5-2.7c6.2-0.1,12.4-0.2,18.7-0.3c0,0,0.1,0,0.2,0
		c0.7,3.8,1.5,7.7,3,11.4c0.1-0.7,0.1-1.4,0.2-2.2c0.2-1.8,0.3-3.6,0.5-5.4c0.1-0.9-0.2-1.6-0.6-2.3c-0.7-1.3-0.6-1.5,0.9-1.5
		c0.8,0,1.5,0,2.3,0c0.9,0,1,0.3,0.7,1.1c-0.1,0.1-0.1,0.3-0.2,0.4c-0.5,0.8-0.7,1.7-0.6,2.7C117.3,109.6,117.5,112,117.7,114.3z"/>
	<path class="st0" d="M115.9,99.1c-4.1,0-7.2-3.1-7.3-7.2c0-4.1,3.2-7.3,7.3-7.3c3.8,0,7.2,3.4,7.2,7.2
		C123.1,95.7,119.7,99.1,115.9,99.1z"/>
</g>
</svg>
