<?xml version="1.0" encoding="utf-8"?>
<!-- Generator: Adobe Illustrator 24.0.1, SVG Export Plug-In . SVG Version: 6.00 Build 0)  -->
<svg version="1.1" id="Layer_1" xmlns="http://www.w3.org/2000/svg" xmlns:xlink="http://www.w3.org/1999/xlink" x="0px" y="0px"
	 viewBox="0 0 198.6 126.6" style="enable-background:new 0 0 198.6 126.6;" xml:space="preserve">
<style type="text/css">
	.st0{fill:#FFFFFF;}
</style>
<g>
	<path class="st0" d="M173.8,54.6c7.8,2,13.9,4.7,18.8,9.8c6,6.1,7,14.8,1.1,21.2c-5.2,5.7-11.6,10.5-18.3,14.1
		c-14.8,7.8-31.2,11.2-47.8,13.1c-30.7,4-61,2.4-90.6-7c-7.8-2.6-15.3-6.6-22.6-10.2c-2.8-1.4-5.3-3.7-7.5-5.8
		c-10.4-10.1-9-22,3.4-29.3c3.8-2.3,7.9-3.8,12.5-4.7c-0.8,0.6-1.7,1.4-2.4,2c-2.9,2.4-6.3,4.6-8.9,7.3c-6.6,6.9-6,12.7,1.8,17.9
		c3.8,2.6,8.1,4.6,12.4,6.1c13.8,5,28.1,7.2,42.6,7.9c28.7,1.7,57.5,2.1,86-3.4c6.1-1.2,12.1-2.9,18-4.9c3.8-1.2,7.3-3.1,10.7-5.2
		c8.7-5.5,9.5-11.8,2.3-19.1C182,61,178.2,58.4,173.8,54.6z"/>
	<path class="st0" d="M159.4,48.8c-0.9,4.3-1.2,8.4-2.6,12.4c-2.9,8.7-9.5,13.3-18.5,13.3c-8.9,0-15.6-4.6-18.5-13.3
		c-2.8-8.3-2.9-16.7-0.2-24.9c3.1-9,9.9-14.1,18.5-14.1c8.7,0,15.6,5,18.5,14.1C158.2,40.2,158.6,44.7,159.4,48.8z M148.1,48.3
		c-0.9-3.8-1.4-8.1-3.1-11.8c-1.1-2.1-4.3-4.1-6.6-4.3c-2.1-0.2-5.3,2-6.3,4c-3.8,7.6-3.8,15.7-0.3,23.5c0.9,2.1,4.4,4.4,6.6,4.3
		c2.4-0.2,5.7-2.3,6.9-4.6C146.9,56.4,147.2,52.4,148.1,48.3z"/>
	<path class="st0" d="M108.2,24c-4.3,5-8.6,10.1-13,15.4c13.9,1.5,20.8,9.9,18.5,21.9c-1.1,5.7-4.4,9.5-9.6,11.6
		c-6.6,2.6-13.1,2.3-19.4-0.9c-8.6-4.4-12.4-13.9-7.5-23.4c4.6-8.9,10.8-17,17.7-24.1c2.3-2.4,8.6-1.1,13-1.4
		C107.9,23.3,108.1,23.6,108.2,24z M94.8,49.4c-4.3,0-7.8,3.7-7.6,8.1c0,4.4,3.5,7.8,7.9,7.8c4.4-0.2,7.8-3.7,7.8-7.9
		C102.7,52.9,99,49.2,94.8,49.4z"/>
	<path class="st0" d="M65.6,46.2c6,6,7.3,11.8,4.7,18c-2.8,6.3-9.3,10.2-17.6,10.1c-9.2,0-15.1-4-18.5-12.2c3.2-1.5,6.4-3.2,9.6-4.7
		c3.8,6.7,7,8.6,11.6,7c3.5-1.2,5-3.7,4.7-7.3c-0.5-4.1-2.9-6.1-9.2-7c0-2,0-4,0-6.3c4-0.3,8.1-1.4,8.1-6.1c0-2-2-4.9-3.8-5.8
		c-5-2.3-7.9,1.2-10.4,5.3c-2.9-1.4-5.5-2.8-8.4-4.1c2.3-6.7,6.9-9.9,13.3-10.7c7.2-0.8,13.9,0.5,17.9,7.3
		C70.9,35.5,70.2,41,65.6,46.2z"/>
	<path class="st0" d="M166.4,9.7c4.9-0.2,8.6,3.5,8.6,8.3c0,4.6-3.4,8.3-8.1,8.4c-4.7,0.2-8.6-3.5-8.6-8.3S161.8,9.7,166.4,9.7z
		 M166.9,23.9c1.8-2.8,4.1-4.6,3.8-6.1c-0.2-1.5-2.6-3.8-4.1-3.8c-1.4,0-3.8,2.4-3.8,4.1C162.6,19.6,164.7,21.1,166.9,23.9z"/>
</g>
</svg>
