<?xml version="1.0" encoding="utf-8"?>
<!-- Generator: Adobe Illustrator 24.0.1, SVG Export Plug-In . SVG Version: 6.00 Build 0)  -->
<svg version="1.1" id="Layer_1" xmlns="http://www.w3.org/2000/svg" xmlns:xlink="http://www.w3.org/1999/xlink" x="0px" y="0px"
	 viewBox="0 0 198.6 198.6" style="enable-background:new 0 0 198.6 198.6;" xml:space="preserve">
<style type="text/css">
	.st0{fill:#FFFFFF;}
</style>
<path class="st0" d="M101.8,155.8c-15.3,0-30.7,0.2-45.8,0c-17.3-0.2-30.7-7.6-39.4-22.4C0.9,106.6,17.6,72,48.3,67.6
	c1.3-0.2,2-0.7,2.8-1.9c12-20.1,29.8-29.7,53.2-28.1c23.7,1.6,43.8,19.5,48.9,42.8c0.4,2,1.6,1.9,2.9,2
	c14.7,2.5,24.9,10.5,29.7,24.6c7.6,21.5-6.5,45-29.1,48.5c-2.5,0.4-4.8,0.6-7.4,0.6C133.5,155.8,117.5,155.8,101.8,155.8z
	 M102.7,140.9c15.6,0,31.3,0,46.8,0c1.5,0,2.9-0.2,4.5-0.4c10.5-1.3,18.6-10.5,19.2-20.8c0.4-10.9-6.8-20.6-17.5-22.4
	c-4.1-0.7-8.3-0.9-12.6-1.1c-1.3,0-2-0.4-2.2-1.9c-0.6-3.3-1.3-6.5-1.9-9.9c-3.3-16.2-16.2-28.8-32.1-31.7
	c-16.2-3.2-32.6,3.8-41.6,17.6c-2,2.9-3.3,6.3-5.2,9.3c-0.4,0.6-1.3,1.3-2,1.3c-2,0.4-4.2,0.6-6.3,0.7c-18.6,2-30.4,19.9-25.3,37.7
	c3.8,12.6,15.3,21.2,28.8,21.2C71.1,140.9,86.8,140.9,102.7,140.9z"/>
<path class="st0" d="M128.1,104c-6.1,0-12.1,0-18.2,0c0,7.4,0,14.7,0,22.1c-7.3,0-14.1,0-21.4,0c0-7.3,0-14.5,0-22
	c-6.3,0-12.2,0-18,0c9.6-9.6,19.3-19.3,28.8-28.8C108.6,84.5,118.2,94.1,128.1,104z"/>
</svg>
