<?xml version="1.0" encoding="utf-8"?>
<!-- Generator: Adobe Illustrator 24.0.1, SVG Export Plug-In . SVG Version: 6.00 Build 0)  -->
<svg version="1.1" id="Capa_1" xmlns="http://www.w3.org/2000/svg" xmlns:xlink="http://www.w3.org/1999/xlink" x="0px" y="0px"
	 viewBox="0 0 45.8 45.8" style="enable-background:new 0 0 45.8 45.8;" xml:space="preserve">
<style type="text/css">
	.st0{fill:#FFFFFF;}
</style>
<path class="st0" d="M22.9,1.3C11,1.3,1.3,11,1.3,22.9c0,11.9,9.7,21.6,21.6,21.6s21.6-9.7,21.6-21.6C44.5,11,34.8,1.3,22.9,1.3z"/>
<g>
	<g>
		<path d="M36.6,26.4L24,13.8c-0.3-0.3-0.7-0.5-1.1-0.5c-0.4,0-0.8,0.2-1.1,0.5L9.3,26.4c-0.3,0.3-0.5,0.7-0.5,1.1s0.2,0.8,0.5,1.1
			l0.9,0.9c0.3,0.3,0.7,0.5,1.1,0.5s0.8-0.2,1.1-0.5L22.9,19l10.6,10.6c0.3,0.3,0.7,0.5,1.1,0.5c0.4,0,0.8-0.2,1.1-0.5l0.9-0.9
			C37.2,28,37.2,27,36.6,26.4z"/>
	</g>
</g>
</svg>
