<?xml version="1.0" encoding="utf-8"?>
<!-- Generator: Adobe Illustrator 24.0.1, SVG Export Plug-In . SVG Version: 6.00 Build 0)  -->
<svg version="1.1" id="Layer_1" xmlns="http://www.w3.org/2000/svg" xmlns:xlink="http://www.w3.org/1999/xlink" x="0px" y="0px"
	 viewBox="0 0 198.6 198.6" style="enable-background:new 0 0 198.6 198.6;" xml:space="preserve">
<style type="text/css">
	.st0{fill:#FFFFFF;}
</style>
<g>
	<path class="st0" d="M99.3,40.1c15.2,0,30.4,0,45.6,0c10.8,0,20.1,9.3,20.1,20.1c0,17.3,0,34.7,0,52c0,10.5-9.4,19.7-19.9,19.8
		c-5,0-10,0-15,0c-1.3,0-2.2,0.4-3.1,1.3c-7.6,7.6-15.2,15.2-22.8,22.8c-3,3-6.9,3-9.9,0c-7.4-7.4-14.9-14.8-22.3-22.3
		c-1.3-1.3-2.6-1.8-4.4-1.8c-4.8,0.1-9.5,0-14.3,0c-10.3-0.1-19.7-9.4-19.7-19.7c-0.1-14.9,0-29.8,0-44.7c0-2.5,0-5,0-7.6
		c0-10.6,9.4-20,20-20C68.8,40.1,84.1,40.1,99.3,40.1z M99.4,53c-12.9,0-25.9,0-38.8,0c-3.1,0-6.2,0-9.2,0.2
		c-2.7,0.2-4.1,1.6-4.7,4.2c-0.2,0.8-0.3,1.6-0.3,2.4c0,5,0,10,0,15c0,9.9,0,19.9,0,29.8c0,3.3,0,6.6,0.3,9.9c0.2,2.5,1.9,4,4.4,4.4
		c0.9,0.1,1.8,0.2,2.6,0.2c6.2,0,12.3,0,18.5,0c2.5,0,4.4,0.9,6.1,2.7c6.6,6.7,13.2,13.2,19.8,19.9c0.9,0.9,1.4,0.9,2.4,0
		c6.6-6.7,13.3-13.3,19.9-20c1.7-1.7,3.6-2.6,6.1-2.6c6.3,0.1,12.6,0,18.9,0c4.6,0,6.7-2,6.8-6.7c0.1-2.6,0-5.2,0-7.8
		c0-9.9,0-19.9,0-29.8c0-5.2,0.1-10.5-0.1-15.7c-0.1-3.9-1.7-5.5-5.6-6c-0.7-0.1-1.4-0.1-2.1-0.1C129.4,53,114.4,53,99.4,53z"/>
	<path class="st0" d="M99.3,66.5c10.9,0,21.8,0,32.7,0c3.2,0,5.7,1.8,6.5,4.6c1.2,4.2-1.8,8.2-6.2,8.3c-5.1,0.1-10.2,0-15.3,0
		c-16.7,0-33.4,0-50.2,0c-3.3,0-5.8-1.8-6.6-4.6c-1.2-4.2,1.7-8.2,6.1-8.3c5.9-0.1,11.8,0,17.7,0C89,66.5,94.2,66.5,99.3,66.5
		C99.3,66.5,99.3,66.5,99.3,66.5z"/>
	<path class="st0" d="M79.4,105.7c-4.3,0-8.6,0-12.9,0c-3.7,0-6.7-2.9-6.6-6.5c0-3.5,3-6.4,6.6-6.4c8.7,0,17.4,0,26.1,0
		c3.7,0,6.7,2.9,6.7,6.5c0,3.5-3,6.3-6.6,6.4C88.2,105.7,83.8,105.7,79.4,105.7z"/>
</g>
</svg>
