<?xml version="1.0" encoding="utf-8"?>
<!-- Generator: Adobe Illustrator 24.0.1, SVG Export Plug-In . SVG Version: 6.00 Build 0)  -->
<svg version="1.1" id="Layer_1" xmlns="http://www.w3.org/2000/svg" xmlns:xlink="http://www.w3.org/1999/xlink" x="0px" y="0px"
	 viewBox="0 0 250 250" style="enable-background:new 0 0 250 250;" xml:space="preserve">
<g>
	<g>
		<g>
			<path d="M125.2,29.5c-27.1,0-49.2,22-49.2,49.2s22,49.2,49.2,49.2s49.2-22,49.2-49.2S152.2,29.5,125.2,29.5z"/>
		</g>
	</g>
	<g>
		<g>
			<path d="M186.3,159.8c-13.5-13.6-31.3-21.2-50.2-21.2h-21.9c-18.9,0-36.7,7.6-50.2,21.2c-13.4,13.6-20.7,31.5-20.7,50.5
				c0,3,2.4,5.4,5.4,5.4h152.8c3,0,5.4-2.4,5.4-5.4C207.1,191.3,199.7,173.5,186.3,159.8z"/>
		</g>
	</g>
</g>
</svg>
