<?xml version="1.0" encoding="utf-8"?>
<!-- Generator: Adobe Illustrator 24.0.1, SVG Export Plug-In . SVG Version: 6.00 Build 0)  -->
<svg version="1.1" id="Capa_1" xmlns="http://www.w3.org/2000/svg" xmlns:xlink="http://www.w3.org/1999/xlink" x="0px" y="0px"
	 viewBox="0 0 468 468" style="enable-background:new 0 0 468 468;" xml:space="preserve">
<style type="text/css">
	.st0{fill:#828282;}
</style>
<g>
	<g>
		<path class="st0" d="M317.8,187.3c-1.3,0.3-2.6,0.9-3.7,1.6L280,208.6v50.8l34.4,19.7c6.4,3.7,14.2,1.6,17.9-4.8
			c1.1-2,1.7-4.1,1.7-6.6v-67.6C334,191.8,326.3,185.3,317.8,187.3z"/>
	</g>
</g>
<g>
	<path class="st0" d="M111.8,341.5c-2.6,0-5.1-1-7.1-2.9c-3.9-3.9-3.9-10.2,0-14.1l195.2-195.2c3.9-3.9,10.2-3.9,14.1,0
		c3.9,3.9,3.9,10.2,0,14.1L118.9,338.6C117,340.5,114.4,341.5,111.8,341.5z"/>
</g>
<g>
	<path class="st0" d="M232.8,175.2h-76.9c-12.1,0-21.9,9.8-21.9,21.9v73.8c0,1,0.1,1.9,0.2,2.9L232.8,175.2z"/>
	<path class="st0" d="M185.9,292.8h61.3c12.1,0,21.9-9.8,21.9-21.9v-61.3L185.9,292.8z"/>
</g>
</svg>
