<?xml version="1.0" encoding="utf-8"?>
<!-- Generator: Adobe Illustrator 24.0.1, SVG Export Plug-In . SVG Version: 6.00 Build 0)  -->
<svg version="1.1" id="Layer_1" xmlns="http://www.w3.org/2000/svg" xmlns:xlink="http://www.w3.org/1999/xlink" x="0px" y="0px"
	 viewBox="0 0 198.6 198.6" style="enable-background:new 0 0 198.6 198.6;" xml:space="preserve">
<style type="text/css">
	.st0{fill:#FFFFFF;}
</style>
<path class="st0" d="M100.6,128.5c-8.2,0-16.5,0.1-24.7,0c-9.3-0.1-16.5-4.1-21.2-12.1c-8.4-14.4,0.6-33,17.1-35.4
	c0.7-0.1,1.1-0.4,1.5-1c6.5-10.8,16.1-16,28.7-15.1c12.8,0.9,23.6,10.5,26.3,23c0.2,1.1,0.9,1,1.6,1.1c7.9,1.3,13.4,5.6,16,13.2
	c4.1,11.6-3.5,24.2-15.7,26.1c-1.3,0.2-2.6,0.3-4,0.3C117.7,128.5,109.1,128.5,100.6,128.5z M101.1,120.5c8.4,0,16.8,0,25.2,0
	c0.8,0,1.6-0.1,2.4-0.2c5.6-0.7,10-5.6,10.3-11.2c0.2-5.9-3.7-11.1-9.4-12.1c-2.2-0.4-4.5-0.5-6.8-0.6c-0.7,0-1.1-0.2-1.2-1
	c-0.3-1.8-0.7-3.5-1-5.3c-1.8-8.7-8.7-15.5-17.3-17.1c-8.7-1.7-17.5,2-22.4,9.5c-1.1,1.6-1.8,3.4-2.8,5c-0.2,0.3-0.7,0.7-1.1,0.7
	c-1.1,0.2-2.3,0.3-3.4,0.4c-10,1.1-16.4,10.7-13.6,20.3c2,6.8,8.2,11.4,15.5,11.4C84.1,120.5,92.6,120.5,101.1,120.5z"/>
<path class="st0" d="M114.8,100.6c-3.3,0-6.5,0-9.8,0c0,4,0,7.9,0,11.9c-3.9,0-7.6,0-11.5,0c0-3.9,0-7.8,0-11.8c-3.4,0-6.6,0-9.7,0
	c5.2-5.2,10.4-10.4,15.5-15.5C104.3,90.1,109.5,95.3,114.8,100.6z"/>
</svg>
