<?xml version="1.0" encoding="utf-8"?>
<!-- Generator: Adobe Illustrator 24.0.1, SVG Export Plug-In . SVG Version: 6.00 Build 0)  -->
<svg version="1.1" id="Capa_1" xmlns="http://www.w3.org/2000/svg" xmlns:xlink="http://www.w3.org/1999/xlink" x="0px" y="0px"
	 viewBox="0 0 468 468" style="enable-background:new 0 0 468 468;" xml:space="preserve">
<style type="text/css">
	.st0{fill:#828282;}
</style>
<g>
	<path class="st0" d="M277.4,158.2c-3.9-20.4-21.9-35.9-43.4-35.9c-24.4,0-44.2,19.9-44.2,44.2v71.7c0,2.4,0.2,4.7,0.6,7
		L277.4,158.2z"/>
	<path class="st0" d="M278.2,238.5v-10.4l-53.5,53.5c3,0.7,6.1,1.1,9.3,1.1C258.4,282.7,278.2,262.8,278.2,238.5z"/>
	<path class="st0" d="M180.5,255.1c-1.6-5.2-2.5-10.8-2.5-16.6c0-4.5-3.4-7.9-7.9-7.9s-7.9,3.4-7.9,7.9c0,10.2,2.1,20,6,28.9
		L180.5,255.1z"/>
	<path class="st0" d="M298.1,230.6c-4.5,0-7.9,3.4-7.9,7.9c0,31-25.1,56.1-56.1,56.1c-6.7,0-13.1-1.2-19.1-3.3l-12.2,12.2
		c7.2,3.5,15.1,5.8,23.5,6.7v21.2h-28.9c-4.5,0-7.9,3.4-7.9,7.9s3.4,7.9,7.9,7.9H271c4.5,0,7.9-3.4,7.9-7.9s-3.4-7.9-7.9-7.9h-28.9
		v-21.2c36.4-4,63.9-34.9,63.9-71.7C306,234,302.6,230.6,298.1,230.6z"/>
</g>
<g>
	<path class="st0" d="M136.4,342.6c-2.6,0-5.1-1-7.1-2.9c-3.9-3.9-3.9-10.2,0-14.1l195.2-195.2c3.9-3.9,10.2-3.9,14.1,0
		c3.9,3.9,3.9,10.2,0,14.1L143.5,339.7C141.5,341.6,139,342.6,136.4,342.6z"/>
</g>
</svg>
