<?xml version="1.0" encoding="utf-8"?>
<!-- Generator: Adobe Illustrator 24.0.1, SVG Export Plug-In . SVG Version: 6.00 Build 0)  -->
<svg version="1.1" id="Layer_1" xmlns="http://www.w3.org/2000/svg" xmlns:xlink="http://www.w3.org/1999/xlink" x="0px" y="0px"
	 viewBox="0 0 198.6 183.6" style="enable-background:new 0 0 198.6 183.6;" xml:space="preserve">
<style type="text/css">
	.st0{fill:#FFFFFF;}
</style>
<g>
	<path class="st0" d="M27.1,152.9c0-7.8,0-15.3,0-22.8c-4.9,0-9.5,0-14.8,0c0,3.4,0,6.6,0,10.2c0,4.1-2,6.3-5.3,6.3
		c-3.2,0-4.9-2.4-4.9-6.3c0-35.6,0-71.3,0-106.6c0-8.4,5.8-14.3,14.3-14.3c55.3,0,110.3,0,165.7,0c8.4,0,14.3,5.5,14.3,14.3
		c0,38.5,0,77.1,0,115.6c0,9-5.5,14.3-14.8,14.3c-51.3,0-102.5,0-154.1,0c-6.3,0-8.4-1.2-8.4-4.9C18.7,154.9,20.9,153.4,27.1,152.9z
		 M98.9,153.2c14.8,0,29.6,0,44.3,0c11,0,17.9-7,17.9-17.9c0-29.3,0-58.5,0-87.7c0-11-7-17.9-17.9-17.9c-29.3,0-58.5,0-87.7,0
		c-11,0-17.9,7-17.9,17.9c0,29.3,0,58.5,0,87.7c0,11,7,17.9,17.9,17.9C69.6,153.2,84.1,153.2,98.9,153.2z M27.1,86
		c0-7.8,0-15.3,0-22.8c-4.9,0-9.9,0-14.5,0c0,7.8,0,15.3,0,22.8C17.5,86,22.1,86,27.1,86z M186.1,86c0-7.8,0-15.7,0-23.2
		c-4.9,0-9.9,0-14.5,0c0,7.8,0,15.3,0,23.2C176.5,86,180.8,86,186.1,86z M26.7,119.6c0-7.8,0-15.7,0-23.2c-4.9,0-9.5,0-14.5,0
		c0,7.8,0,15.3,0,23.2C17.2,119.6,21.8,119.6,26.7,119.6z M171.6,96.4c0,7.8,0,15.3,0,22.8c4.9,0,9.9,0,14.5,0c0-7.8,0-15.3,0-22.8
		C181.2,96.4,176.5,96.4,171.6,96.4z M27.1,29.3c-4.1,0-7.5-0.3-11,0c-1.5,0.3-3.8,1.7-3.8,2.9c-0.3,6.6-0.3,13.6-0.3,19.9
		c5.3,0,10.2,0,14.8,0C27.1,44.6,27.1,37,27.1,29.3z M186.4,52.3c0-6.6,0-13.1,0-19.4c0-2.6-1.5-3.8-4.1-3.8c-3.4,0-7.3,0-10.7,0
		c0,8,0,15.7,0,23.2C176.2,52.3,180.8,52.3,186.4,52.3z M171.3,130.1c0,7.8,0,15.3,0,23.2c3.8,0,7.5,0.3,11-0.3
		c1.5-0.3,3.4-2.4,3.4-3.4c0.3-6.3,0.3-13.1,0.3-19.7C181.2,130.1,176.5,130.1,171.3,130.1z"/>
	<path class="st0" d="M80.4,91.1c0-4.6,0-9.5,0-14.3c0-5.5,3.8-7.5,8.4-4.9c8,4.6,16.2,9.2,24.3,13.9c5.3,3.2,5.3,7,0,10.2
		c-8,4.6-16.2,9.2-24.3,13.9c-4.6,2.6-8,0.5-8.4-4.9C80.4,100.8,80.4,95.9,80.4,91.1z"/>
</g>
</svg>
