<?xml version="1.0" encoding="utf-8"?>
<!-- Generator: Adobe Illustrator 24.0.1, SVG Export Plug-In . SVG Version: 6.00 Build 0)  -->
<svg version="1.1" id="Layer_1" xmlns="http://www.w3.org/2000/svg" xmlns:xlink="http://www.w3.org/1999/xlink" x="0px" y="0px"
	 viewBox="0 0 329 329" style="enable-background:new 0 0 329 329;" xml:space="preserve">
<style type="text/css">
	.st0{fill:#FFFFFF;}
</style>
<path class="st0" d="M178.2,164.8l58-58c3.8-3.8,3.8-9.9,0-13.6c-3.8-3.8-9.9-3.8-13.6,0l-58,58l-58-58c-3.8-3.8-9.9-3.8-13.6,0
	c-3.8,3.8-3.8,9.9,0,13.6l58,58l-58,58c-3.8,3.8-3.8,9.9,0,13.6c1.9,1.9,4.4,2.9,6.8,2.9s4.9-1,6.8-2.9l58-58l58,58
	c1.9,1.9,4.4,2.9,6.8,2.9c2.5,0,4.9-1,6.8-2.9c3.8-3.8,3.8-9.9,0-13.6L178.2,164.8z"/>
</svg>
