<?xml version="1.0" encoding="utf-8"?>
<!-- Generator: Adobe Illustrator 24.0.1, SVG Export Plug-In . SVG Version: 6.00 Build 0)  -->
<svg version="1.1" id="Layer_1" xmlns="http://www.w3.org/2000/svg" xmlns:xlink="http://www.w3.org/1999/xlink" x="0px" y="0px"
	 viewBox="0 0 198.6 198.6" style="enable-background:new 0 0 198.6 198.6;" xml:space="preserve">
<style type="text/css">
	.st0{fill:#FFFFFF;}
</style>
<g>
	<path class="st0" d="M121.3,159.2c-12.2,0-24.4,0-36.6,0c-8.7,0-13.7-5.1-13.7-13.8c0-18.2,0-36.4,0-54.6c0-8.4,5.3-13.7,13.7-13.7
		c24.4,0,49,0,73.4,0c8.9,0,14,5.1,14,14.2c0,18,0,35.9,0,53.9c0,8.9-5.1,13.8-14,13.8C145.7,159.2,133.5,159.2,121.3,159.2z"/>
	<path class="st0" d="M64.7,121.2c-9.5,0-18.4,0.4-27.3-0.2c-6.2-0.4-10.6-5.8-10.6-12.2c-0.2-18.9-0.2-38,0-57
		c0-7.3,5.5-12.6,12.9-12.6c25.1,0,50.1,0,75.2,0c7.6,0,12.7,5.3,12.9,12.7c0,5.8,0,11.6,0,17.7c0,0.4-0.2,0.5-0.4,1.3
		c-5.8,0-11.6,0-17.5,0c-8.6,0-17.1,0-25.7,0c-11.6,0-19.7,8-19.7,19.8c0,9.1,0,18,0,27.1C64.7,119,64.7,120.1,64.7,121.2z"/>
</g>
</svg>
