<?xml version="1.0" encoding="utf-8"?>
<!-- Generator: Adobe Illustrator 24.0.1, SVG Export Plug-In . SVG Version: 6.00 Build 0)  -->
<svg version="1.1" id="Layer_1" xmlns="http://www.w3.org/2000/svg" xmlns:xlink="http://www.w3.org/1999/xlink" x="0px" y="0px"
	 viewBox="0 0 198.6 198.6" style="enable-background:new 0 0 198.6 198.6;" xml:space="preserve">
<style type="text/css">
	.st0{fill:#FFFFFF;}
</style>
<path class="st0" d="M15.2,107.7c2.3-4.7,6.2-7.6,10.5-10.3c42.6-26,85.1-52.1,127.7-78.2c6.6-4.1,9-3.2,13.4,3.1
	c7.4,10.5,11,22.4,13.9,34.5c3.3,13.9-1.2,22.8-13.3,30.2c-10.6,6.5-21.1,13-32,19.6c4.8,11.2,8.2,23,20.9,29.7
	c3.6-3.7,7.7-7.9,11.7-12.1c2.5-2.7,5.2-4.7,9.1-3c3.9,1.6,4.4,4.9,4.3,8.6c-0.1,14.9-0.1,29.7,0,44.6c0,3.6-0.8,6.6-4.5,8.1
	c-3.5,1.4-6.1-0.1-8.5-2.6c-4.2-4.3-8.5-8.6-12.9-13c-1.4,1.3-2.4,2.3-3.5,3.2c-13.1,11.3-33.8,5.9-38.5-10.8
	c-2.1-7.5-6.2-13.5-10.6-19.5c-2.2-3-4.7-5.8-7.2-8.8c-3.7,2.3-6.9,5-10.6,6.3c-10.3,3.7-16.1,11.8-21.8,20.3c-4.7,7-7,7.3-14.2,3.1
	c-7.6-4.4-15.2-8.8-22.8-13.3c-5.8-3.4-6.6-6.1-3.6-12.1c1.1-2.2,2.2-4.4,2.9-5.8c-3.8-5.2-7.2-10-10.7-14.8
	C15.2,112.3,15.2,110,15.2,107.7z M63.4,124.6c5.4,4.2,9,4.6,14,1.5c28.2-17.2,56.3-34.5,84.4-51.7c5.3-3.3,6.6-6.5,5.1-13.3
	C132.4,82.2,98,103.4,63.4,124.6z"/>
</svg>
