<?xml version="1.0" encoding="utf-8"?>
<!-- Generator: Adobe Illustrator 24.0.1, SVG Export Plug-In . SVG Version: 6.00 Build 0)  -->
<svg version="1.1" id="Layer_1" xmlns="http://www.w3.org/2000/svg" xmlns:xlink="http://www.w3.org/1999/xlink" x="0px" y="0px"
	 viewBox="0 0 198.6 198.6" style="enable-background:new 0 0 198.6 198.6;" xml:space="preserve">
<style type="text/css">
	.st0{fill:#FFFFFF;}
</style>
<g>
	<path class="st0" d="M99,176.9c-27,0-53.9,0-80.8,0c-8.3,0-14.8-5.5-16.3-13.4c-0.2-0.9-0.2-2-0.2-3c0-41.1,0-81.9,0-123
		c0-8.3,5.6-14.8,13.8-16.3c0.9-0.2,1.9-0.2,2.8-0.2c53.9,0,108,0,161.7,0c8.4,0,15.3,5.8,16.6,14.2c0.2,0.8,0.2,1.6,0.2,2.3
		c0,40.9,0,81.6,0,122.5c0,8.1-5.5,14.7-12.5,16.3c-1.4,0.5-2.8,0.5-4.2,0.5C152.7,176.9,125.7,176.9,99,176.9z M99,33.9
		c-26.7,0-53.6,0-80.3,0c-0.5,0-0.8,0-1.3,0c-1.4,0.2-2.7,1.3-2.8,2.7c0,0.5-0.2,0.8-0.2,1.4c0,40.6,0,81.4,0,122c0,0.2,0,0.5,0,0.6
		c0,1.9,1.4,3,3.3,3.3c0.5,0,0.8,0,0.9,0c53.6,0,107.2,0,160.6,0c0.5,0,0.9,0,1.4,0c1.4-0.2,2.2-0.9,2.7-2.3
		c0.2-0.5,0.2-0.8,0.2-1.4c0-40.9,0-81.6,0-122.5c0-0.2,0-0.5,0-0.8c-0.2-1.4-1.3-2.8-2.8-3c-0.5,0-0.9,0-1.4,0
		C152.6,33.9,125.7,33.9,99,33.9z"/>
	<path class="st0" d="M170.4,150.9c-47.7,0-95.3,0-143,0c0-0.2,0-0.6,0-0.8c0-6.1,0-11.9,0-18c0-0.5,0.2-0.9,0.6-1.3
		C38.5,120.4,49,110,59.5,99.5c0.2-0.2,0.2-0.2,0.5-0.5c5.5,5.5,10.6,10.6,16.1,16.1c17.3-17.3,34.7-34.7,51.9-51.9
		c0.5,0.5,0.6,0.6,0.8,0.8c13.8,13.8,27.2,27.2,40.9,40.9c0.5,0.5,0.6,0.9,0.6,1.6c0,14.5,0,29.1,0,43.4
		C170.4,150.1,170.4,150.4,170.4,150.9z"/>
</g>
</svg>
