<?xml version="1.0" encoding="utf-8"?>
<!-- Generator: Adobe Illustrator 24.0.1, SVG Export Plug-In . SVG Version: 6.00 Build 0)  -->
<svg version="1.1" id="Capa_1" xmlns="http://www.w3.org/2000/svg" xmlns:xlink="http://www.w3.org/1999/xlink" x="0px" y="0px"
	 viewBox="0 0 468 468" style="enable-background:new 0 0 468 468;" xml:space="preserve">
<style type="text/css">
	.st0{fill:#FFFFFF;}
</style>
<g>
	<g>
		<g>
			<path class="st0" d="M247.1,175.2h-91.2c-12.1,0-21.9,9.8-21.9,21.9v73.8c0,12.1,9.8,21.9,21.9,21.9h91.3
				c12.1,0,21.9-9.8,21.9-21.9v-73.8C269,184.9,259.2,175.2,247.1,175.2z"/>
		</g>
	</g>
	<g>
		<g>
			<path class="st0" d="M317.8,187.3c-1.3,0.3-2.6,0.9-3.7,1.6l-34.1,19.7v50.8l34.4,19.7c6.4,3.7,14.2,1.6,17.9-4.8
				c1.1-2,1.7-4.1,1.7-6.6v-67.6C334,191.8,326.3,185.3,317.8,187.3z"/>
		</g>
	</g>
</g>
</svg>
