<?xml version="1.0" encoding="utf-8"?>
<!-- Generator: Adobe Illustrator 24.0.1, SVG Export Plug-In . SVG Version: 6.00 Build 0)  -->
<svg version="1.1" id="Capa_1" xmlns="http://www.w3.org/2000/svg" xmlns:xlink="http://www.w3.org/1999/xlink" x="0px" y="0px"
	 viewBox="0 0 142.9 142.9" style="enable-background:new 0 0 142.9 142.9;" xml:space="preserve">
<style type="text/css">
	.st0{fill:#FFFFFF;}
</style>
<g>
	<g>
		<path class="st0" d="M44,102.3L35.5,114c-1.7,2.3-1.2,5.6,1.1,7.3c0.9,0.7,2,1,3.1,1c1.6,0,3.2-0.7,4.2-2.1l8.6-11.8
			c5.7,3,12.1,4.7,18.9,4.7c22.3,0,40.4-18.1,40.4-40.4c0-11.4-4.7-21.6-12.3-29l10.7-14.7c1.7-2.3,1.2-5.6-1.1-7.3
			c-2.3-1.7-5.6-1.2-7.3,1.1L91.3,37.4c-5.9-3.3-12.6-5.2-19.8-5.2C49.2,32.2,31,50.3,31,72.6C31,84.3,36.1,94.9,44,102.3z
			 M101.5,72.6c0,16.6-13.5,30-30,30c-4.6,0-8.9-1.1-12.7-2.9l34.6-47.6C98.4,57.5,101.5,64.7,101.5,72.6z M71.5,42.6
			c4.9,0,9.5,1.2,13.6,3.3L50.2,93.8c-5.4-5.4-8.8-12.9-8.8-21.2C41.4,56.1,54.9,42.6,71.5,42.6z"/>
	</g>
</g>
</svg>
