<?xml version="1.0" encoding="utf-8"?>
<!-- Generator: Adobe Illustrator 24.0.1, SVG Export Plug-In . SVG Version: 6.00 Build 0)  -->
<svg version="1.1" id="Layer_1" xmlns="http://www.w3.org/2000/svg" xmlns:xlink="http://www.w3.org/1999/xlink" x="0px" y="0px"
	 viewBox="0 0 198.6 198.6" style="enable-background:new 0 0 198.6 198.6;" xml:space="preserve">
<style type="text/css">
	.st0{fill:#FFFFFF;}
</style>
<path class="st0" d="M132.5,82.1c-9.6,0-18.7,0-27.9,0c-6.3,0-12.7-0.1-19,0c-1.8,0-2.9-0.3-3.1-2.4c-0.1-1.5-0.7-2.9-1.1-4.6
	c20.2,0,40,0,60.1,0c-0.2,0.8-0.3,1.6-0.5,2.4c-2.7,10-5.4,19.9-8.1,29.9c-1.5,5.6-3.3,7-8.6,7.2c1.8,1.7,4.3,3.5,6,5.8
	c1.9,2.5,1.9,5.6,0.8,8.6c-1.6,4.5-6.1,7.6-10.7,7.3c-4.9-0.3-9.1-3.9-10.1-8.5c-1.1-5.5,1.4-9.7,8-13.1c-9.2,0-18.2,0-27.4,0
	c6.8,3.7,9.3,8.1,7.8,13.6c-1.3,4.7-5.9,8.2-10.7,8c-4.8-0.2-9.2-3.7-10.2-8.3c-1.3-5.8,1.3-10.1,8.4-13.4c-1,0-1.5,0-1.9,0
	c-4.2-0.2-6.5-1.9-7.5-6c-2.9-11.7-5.8-23.3-8.8-35c-0.2-0.7-0.4-1.5-0.7-2.4c-2.5,0-5,0-7.5,0c-2.4,0-4-1.4-4.1-3.4
	c-0.1-2.1,1.5-3.6,4-3.7c2.1-0.1,4.3,0,6.4,0c5,0,7.3,1.8,8.5,6.8c2.9,11.4,5.8,22.8,8.5,34.3c0.4,1.9,1.1,2.4,3,2.4
	c12.2-0.1,24.5,0,36.7,0c1.1,0,2.3,0.3,2.7-1.5C128,98.2,130.2,90.3,132.5,82.1z M92.1,125.7c0-2-1.5-3.6-3.4-3.7
	c-2.1-0.1-3.9,1.5-3.9,3.5c0,2,1.7,3.8,3.7,3.8C90.4,129.2,92.1,127.6,92.1,125.7z M120.9,122c-2,0.1-3.5,1.7-3.5,3.7
	c0.1,2,1.7,3.6,3.6,3.6c2,0,3.8-1.9,3.7-3.8C124.5,123.4,122.9,121.9,120.9,122z"/>
</svg>
