<?xml version="1.0" encoding="utf-8"?>
<!-- Generator: Adobe Illustrator 24.0.1, SVG Export Plug-In . SVG Version: 6.00 Build 0)  -->
<svg version="1.1" id="Layer_1" xmlns="http://www.w3.org/2000/svg" xmlns:xlink="http://www.w3.org/1999/xlink" x="0px" y="0px"
	 viewBox="0 0 399.9 409.5" style="enable-background:new 0 0 399.9 409.5;" xml:space="preserve">
<style type="text/css">
	.st0{fill:#FFFFFF;}
</style>
<g>
	<path class="st0" d="M46.9,343.2c-3.8,0-7.7-1.5-10.6-4.4c-5.9-5.9-5.9-15.3,0-21.2l293.2-294c5.9-5.9,15.3-5.9,21.2,0
		c5.9,5.9,5.9,15.3,0,21.2l-293.2,294C54.6,341.8,50.7,343.2,46.9,343.2z"/>
</g>
<g>
	<path class="st0" d="M346.7,216.4C324,199,301.3,181.5,278.5,164l-17.7,17.2c17.6,13.6,35.4,27.2,53.3,41
		c-18.5,3.7-34.9,7-51.3,10.4c-14.1,2.9-17.5,9.5-11.1,22.5c8.3,16.7,16.6,33.4,25.4,51.1c-14.6,7.4-28.6,14.5-43.6,22
		c-8.4-16.9-16.5-33.3-24.7-49.6c-7.6-15.2-14.8-16.4-26.9-4.3c-12.8,12.8-25.5,25.7-39.6,39.9c0-6,0-11.9,0-17.9l-25.8,25.1
		c0,5.5,0,10.9,0,16.4c-0.1,7.4-0.3,15.1,8.1,18.4c8,3.2,12.8-2.3,17.8-7.3c16-16,32.2-31.9,49.3-48.7c8.1,16.2,15.6,31.5,23.5,46.7
		c5.5,10.8,10.6,12.4,21.5,7c18.8-9.4,37.6-18.9,56.4-28.3c14.3-7.2,15.8-11.4,8.8-25.4c-7.4-15-14.8-30-22.6-45.6
		c21-4.2,40.9-8.3,60.9-12.2c6.7-1.3,13.1-2.7,14.8-10.6C356.5,224.5,351.9,220.4,346.7,216.4z"/>
	<path class="st0" d="M116.5,199.9l25.8-25.6c0-27.9,0-55.9,0-84.1c15.9,12.3,31.8,24.5,47.7,36.7l17.5-17.4
		c-22-16.9-43.9-33.8-65.9-50.7c-5.3-4-10.5-8.6-17.7-5.3c-7.7,3.5-7.5,10.7-7.5,17.8C116.5,114.1,116.5,157,116.5,199.9z"/>
</g>
</svg>
