<?xml version="1.0" encoding="utf-8"?>
<!-- Generator: Adobe Illustrator 24.0.1, SVG Export Plug-In . SVG Version: 6.00 Build 0)  -->
<svg version="1.1" id="Layer_1" xmlns="http://www.w3.org/2000/svg" xmlns:xlink="http://www.w3.org/1999/xlink" x="0px" y="0px"
	 viewBox="0 0 198.6 183.6" style="enable-background:new 0 0 198.6 183.6;" xml:space="preserve">
<style type="text/css">
	.st0{fill:#FFFFFF;}
</style>
<g>
	<path class="st0" d="M99.3,181.3c-49.4,0-89.5-40.2-89.5-89.5c0-5,4-9,9-9s9,4,9,9c0,39.4,32.1,71.5,71.5,71.5
		c39.4,0,71.5-32.1,71.5-71.5c0-39.4-32.1-71.5-71.5-71.5c-5,0-9-4-9-9s4-9,9-9c49.4,0,89.5,40.2,89.5,89.5S148.7,181.3,99.3,181.3z
		"/>
</g>
<g>
	<path class="st0" d="M99.3,142.3c-27.8,0-50.5-22.6-50.5-50.5c0-27.8,22.6-50.5,50.5-50.5s50.5,22.6,50.5,50.5c0,3.3-2.7,6-6,6
		s-6-2.7-6-6c0-21.2-17.3-38.5-38.5-38.5c-21.2,0-38.5,17.3-38.5,38.5s17.3,38.5,38.5,38.5c3.3,0,6,2.7,6,6S102.6,142.3,99.3,142.3z
		"/>
</g>
</svg>
