<?xml version="1.0" encoding="utf-8"?>
<!-- Generator: Adobe Illustrator 24.0.1, SVG Export Plug-In . SVG Version: 6.00 Build 0)  -->
<svg version="1.1" id="Layer_1" xmlns="http://www.w3.org/2000/svg" xmlns:xlink="http://www.w3.org/1999/xlink" x="0px" y="0px"
	 viewBox="0 0 324 250" style="enable-background:new 0 0 324 250;" xml:space="preserve">
<g>
	<path d="M212.3,225.6c-24,0-48,0-72,0c-14.1,0-18.7-5.2-17.3-19.6c3.7-39,34.3-67.9,74.5-69.8c12.1-0.5,24.3-0.5,36.4,0.5
		c37.9,3.6,67.4,35.7,68.2,73.7c0.3,10.2-4.5,15.2-15,15.2C262.1,225.7,237.2,225.6,212.3,225.6z"/>
	<path d="M97.7,123.2c-28.3,0.1-51.6-22.6-51.7-50.4c-0.1-28.9,22.5-51.9,51.5-52c27.7-0.3,50.9,22.9,50.9,51.2
		C148.5,99.9,125.5,123.1,97.7,123.2z"/>
	<path d="M212.4,123.2c-28.4-0.1-51.3-23.2-51.3-51.6c0.1-28,23.3-50.9,51.3-50.9c28.4,0,51.5,23.2,51.3,51.6
		C263.6,100.3,240.4,123.3,212.4,123.2z"/>
	<path d="M126.6,140.6c-21.8,24.1-32.7,51.6-28.3,83.7c-0.4,0.4-0.8,1-1.1,1c-21.4,0.1-42.9,0.4-64.3,0.1
		c-8.4-0.1-12.5-5.5-12.6-14.8c-1-40.3,27.9-71.8,68.3-74.6C103.5,135,116.8,136.5,126.6,140.6z"/>
</g>
</svg>
