<?xml version="1.0" encoding="utf-8"?>
<!-- Generator: Adobe Illustrator 24.0.1, SVG Export Plug-In . SVG Version: 6.00 Build 0)  -->
<svg version="1.1" id="Layer_1" xmlns="http://www.w3.org/2000/svg" xmlns:xlink="http://www.w3.org/1999/xlink" x="0px" y="0px"
	 viewBox="0 0 417.9 409.5" style="enable-background:new 0 0 417.9 409.5;" xml:space="preserve">
<style type="text/css">
	.st0{fill:#FFFFFF;}
</style>
<g>
	<path class="st0" d="M202.9,20.4c6.2,6,7.2,12.7,4.1,20.6c-2.6,6.8-4.2,14-6.4,21c-2.2,6.9-6.6,11.2-14.4,9.5
		c-6.8-1.4-9.9-7.9-7.6-15.9c2.3-8.2,4.5-16.5,7.6-24.4c1.6-4,5-7.2,7.6-10.8C196.8,20.4,199.9,20.4,202.9,20.4z"/>
	<path class="st0" d="M214.8,336.1c-15.9,15.7-31,30.5-46,45.4c-4.7,4.7-9.1,9.8-16.6,6.8c-7.8-3.1-7.6-10.3-7.6-17.2
		c0-82.9,0-165.8,0-248.6c0-6.6-0.2-13.3,7-16.6c6.7-3.1,11.6,1.2,16.5,4.9c63.7,49,127.4,98.1,191.1,147c4.8,3.7,9.1,7.6,7.7,14.4
		c-1.6,7.4-7.6,8.7-13.8,9.9c-18.6,3.6-37.2,7.5-56.8,11.4c7.3,14.5,14.2,28.5,21.1,42.5c6.5,13.1,5.1,17-8.2,23.7
		c-17.5,8.8-35.1,17.6-52.6,26.4c-10.2,5-14.9,3.5-20-6.5C229.3,365.4,222.3,351.2,214.8,336.1z M328.9,263.3
		c-54.5-42-107.1-82.3-160.2-123.2c0,70.2,0,138.7,0,208.9c13.1-13.2,25-25.3,36.9-37.2c11.3-11.3,18-10.2,25.1,4
		c7.6,15.2,15.2,30.5,23,46.2c14-7,27-13.6,40.7-20.5c-8.2-16.5-15.9-32.1-23.7-47.6c-6-12.1-2.8-18.3,10.3-21
		C296.4,269.9,311.7,266.8,328.9,263.3z"/>
	<path class="st0" d="M125.5,78c-1.7-1.3-5.8-3.2-7.7-6.4c-5-8-9.4-16.5-13.7-24.9c-3.2-6.2-2.4-12.3,4-15.9
		c6.6-3.6,12.5-1.7,16.3,5c4.6,8.3,9.3,16.5,13.4,25.1C141.9,69.6,136.8,77.9,125.5,78z"/>
	<path class="st0" d="M273.1,88c-1.4,1.6-3.4,5.6-6.7,7.6c-7.7,4.8-16.1,8.9-24.2,13.1c-6.8,3.6-13,2.6-16.6-4.2
		c-3.6-6.8-1-12.5,5.7-16.1c8.4-4.5,16.6-9.3,25.2-13.3C265,71.1,273.4,76.6,273.1,88z"/>
	<path class="st0" d="M91.1,126.6c-13.4-4.2-24.8-6.8-35.3-11.6c-3.2-1.4-6.1-9.1-4.9-12.8c1-3.5,7.8-8.3,11.3-7.6
		c11.3,2.1,22.6,5.5,33.1,10.1c3,1.3,5.6,8.5,4.8,12.1C99.1,120.7,93.9,123.7,91.1,126.6z"/>
	<path class="st0" d="M95.5,160.6c4.2,3.9,9.1,6.4,9.9,10c0.8,3.9-0.7,10.6-3.5,12.6c-9,6.2-18.8,11.5-29,15.6
		c-3.4,1.3-10-0.9-12.6-3.8c-2.2-2.5-2.5-10.7-0.7-12.1C70.8,175,82.8,168.3,95.5,160.6z"/>
</g>
</svg>
