<?xml version="1.0" encoding="utf-8"?>
<!-- Generator: Adobe Illustrator 24.0.1, SVG Export Plug-In . SVG Version: 6.00 Build 0)  -->
<svg version="1.1" id="Layer_1" xmlns="http://www.w3.org/2000/svg" xmlns:xlink="http://www.w3.org/1999/xlink" x="0px" y="0px"
	 viewBox="0 0 198.6 198.6" style="enable-background:new 0 0 198.6 198.6;" xml:space="preserve">
<style type="text/css">
	.st0{fill:#FFFFFF;}
</style>
<path class="st0" d="M162.3,102.3c0,1.3,0,2.4,0,3.5c0,19,0,38.1,0,57.1c0,11.5-7.4,19-18.7,19c-8.1,0-16.4,0-24.6,0
	c-4.9,0-7.4-2.4-7.4-7.4c0-12.8,0-25.8,0-38.6c0-4.2-1-4.9-4.9-4.9c-5.1,0-10.4,0-15.5,0c-3.7,0-4.5,1-4.5,4.5c0,12.8,0,25.5,0,38.3
	c0,5.9-2.4,8.1-8.1,8.1c-8.1,0-16.7,0-24.9,0c-10.1,0-17.7-7.6-17.7-17.7c0-19.4,0-38.9,0-58.2c0-1,0-2.2,0-3.5c-1.9,0-3.7,0-5.4,0
	c-4.9-0.3-8.6-2.4-10.4-6.9c-1.9-4.6-0.8-8.8,2.7-12.1c20.9-20.6,42.1-41,63.2-61.4c6.4-6.4,16.9-6.4,23.6-0.3
	c21.9,20.4,43.7,40.8,65.7,61.2c4,3.7,4.9,8.1,3.2,12.6c-1.9,4.6-5.9,6.9-10.8,6.9C166,102.3,164.2,102.3,162.3,102.3z M152.9,92.7
	c4.6,0,9.4,0,13.7,0c1,0,1.7-0.8,2.7-1c-0.5-1-0.8-1.9-1.3-2.7c-21.4-20.1-43-40.3-64.4-60.5c-3.5-3.2-7.8-3.2-11.3,0
	C71.6,48.7,50.9,69.1,30.3,89.2c-0.8,0.8-0.8,1.5-1,2.4c1,0.3,1.7,1,2.7,1c3.5,0,6.9,0,10.1,0c3.5,0,3.5,0,3.5,3.5
	c0,21.9,0.3,43.7,0,65.7c0,6.7,2.9,10.8,10.5,10.5c6.9-0.5,14,0,20.9,0c1,0,1.9,0,2.9,0c0-1.3,0-2.2,0-2.9c0-12.3,0-24.6,0-36.9
	c0-5.6,2.4-8.1,8.1-8.1c7.4,0,14.7,0,22.2,0c5.9,0,8.1,2.2,8.1,8.1c0,12.1,0,24.4,0,36.7c0,1,0,1.9,0.3,3.2c8.6,0,16.9,0,25.1,0
	c6.4,0,9.6-2.9,9.6-9.9c0-22.2,0-44.5,0-66.4C152.9,94.9,152.9,94.2,152.9,92.7z"/>
</svg>
