<?xml version="1.0" encoding="utf-8"?>
<!-- Generator: Adobe Illustrator 24.0.1, SVG Export Plug-In . SVG Version: 6.00 Build 0)  -->
<svg version="1.1" id="Layer_1" xmlns="http://www.w3.org/2000/svg" xmlns:xlink="http://www.w3.org/1999/xlink" x="0px" y="0px"
	 viewBox="0 0 198.6 198.6" style="enable-background:new 0 0 198.6 198.6;" xml:space="preserve">
<style type="text/css">
	.st0{fill:#FFFFFF;}
</style>
<g>
	<path class="st0" d="M127.6,176.4c-15.7,0-31.4,0-47.1,0c-11.2,0-17.6-6.6-17.6-17.8c0-23.4,0-46.9,0-70.3
		c0-10.8,6.8-17.6,17.6-17.6c31.4,0,63.1,0,94.5,0c11.5,0,18,6.6,18,18.3c0,23.2,0,46.2,0,69.4c0,11.5-6.6,17.8-18,17.8
		C159,176.4,143.3,176.4,127.6,176.4z"/>
	<path class="st0" d="M54.7,127.5c-12.2,0-23.7,0.5-35.1-0.3c-8-0.5-13.6-7.5-13.6-15.7c-0.3-24.3-0.3-48.9,0-73.4
		C5.9,28.8,13,22,22.6,22c32.3,0,64.5,0,96.8,0c9.8,0,16.3,6.8,16.6,16.3c0,7.5,0,14.9,0,22.8c0,0.5-0.3,0.6-0.5,1.7
		c-7.5,0-14.9,0-22.5,0c-11.1,0-22,0-33.1,0c-14.9,0-25.4,10.3-25.4,25.5c0,11.7,0,23.2,0,34.9C54.7,124.7,54.7,126.1,54.7,127.5z"
		/>
</g>
</svg>
