<?xml version="1.0" encoding="utf-8"?>
<!-- Generator: Adobe Illustrator 24.0.1, SVG Export Plug-In . SVG Version: 6.00 Build 0)  -->
<svg version="1.1" id="Layer_1" xmlns="http://www.w3.org/2000/svg" xmlns:xlink="http://www.w3.org/1999/xlink" x="0px" y="0px"
	 viewBox="0 0 198.6 198.6" style="enable-background:new 0 0 198.6 198.6;" xml:space="preserve">
<style type="text/css">
	.st0{fill:#FFFFFF;}
</style>
<g>
	<path class="st0" d="M99.3,18.5c20.8,0,41.5,0,62.3,0c14.7,0,27.4,12.7,27.4,27.4c0,23.6,0,47.4,0,71c0,14.3-12.8,26.9-27.2,27
		c-6.8,0-13.7,0-20.5,0c-1.8,0-3,0.5-4.2,1.8c-10.4,10.4-20.8,20.8-31.1,31.1c-4.1,4.1-9.4,4.1-13.5,0
		c-10.1-10.1-20.3-20.2-30.4-30.4c-1.8-1.8-3.5-2.5-6-2.5c-6.6,0.1-13,0-19.5,0c-14.1-0.1-26.9-12.8-26.9-26.9
		c-0.1-20.3,0-40.7,0-61c0-3.4,0-6.8,0-10.4c0-14.5,12.8-27.3,27.3-27.3C57.7,18.5,78.6,18.5,99.3,18.5z M99.4,36.1
		c-17.6,0-35.4,0-53,0c-4.2,0-8.5,0-12.6,0.3c-3.7,0.3-5.6,2.2-6.4,5.7c-0.3,1.1-0.4,2.2-0.4,3.3c0,6.8,0,13.7,0,20.5
		c0,13.5,0,27.2,0,40.7c0,4.5,0,9,0.4,13.5c0.3,3.4,2.6,5.5,6,6c1.2,0.1,2.5,0.3,3.5,0.3c8.5,0,16.8,0,25.3,0c3.4,0,6,1.2,8.3,3.7
		c9,9.1,18,18,27,27.2c1.2,1.2,1.9,1.2,3.3,0c9-9.1,18.2-18.2,27.2-27.3c2.3-2.3,4.9-3.5,8.3-3.5c8.6,0.1,17.2,0,25.8,0
		c6.3,0,9.1-2.7,9.3-9.1c0.1-3.5,0-7.1,0-10.6c0-13.5,0-27.2,0-40.7c0-7.1,0.1-14.3-0.1-21.4c-0.1-5.3-2.3-7.5-7.6-8.2
		c-1-0.1-1.9-0.1-2.9-0.1C140.4,36.1,119.9,36.1,99.4,36.1z"/>
	<path class="st0" d="M99.3,54.6c14.9,0,29.8,0,44.6,0c4.4,0,7.8,2.5,8.9,6.3c1.6,5.7-2.5,11.2-8.5,11.3c-7,0.1-13.9,0-20.9,0
		c-22.8,0-45.6,0-68.5,0c-4.5,0-7.9-2.5-9-6.3c-1.6-5.7,2.3-11.2,8.3-11.3c8.1-0.1,16.1,0,24.2,0C85.2,54.6,92.3,54.6,99.3,54.6
		L99.3,54.6z"/>
	<path class="st0" d="M72.1,108.1c-5.9,0-11.7,0-17.6,0c-5.1,0-9.1-4-9-8.9c0-4.8,4.1-8.7,9-8.7c11.9,0,23.8,0,35.6,0
		c5.1,0,9.1,4,9.1,8.9c0,4.8-4.1,8.6-9,8.7C84.2,108.1,78.1,108.1,72.1,108.1z"/>
</g>
</svg>
