<?xml version="1.0" encoding="utf-8"?>
<!-- Generator: Adobe Illustrator 24.0.1, SVG Export Plug-In . SVG Version: 6.00 Build 0)  -->
<svg version="1.1" id="Layer_1" xmlns="http://www.w3.org/2000/svg" xmlns:xlink="http://www.w3.org/1999/xlink" x="0px" y="0px"
	 viewBox="0 0 198.6 198.6" style="enable-background:new 0 0 198.6 198.6;" xml:space="preserve">
<style type="text/css">
	.st0{fill:#FFFFFF;}
</style>
<g>
	<path class="st0" d="M111.4,132.2c-6.7,0-13.4,0-20.1,0c-4.8,0-7.5-2.8-7.5-7.6c0-10,0-20,0-30c0-4.6,2.9-7.5,7.5-7.5
		c13.4,0,26.9,0,40.3,0c4.9,0,7.7,2.8,7.7,7.8c0,9.9,0,19.7,0,29.6c0,4.9-2.8,7.6-7.7,7.6C124.8,132.2,118.1,132.2,111.4,132.2z"/>
	<path class="st0" d="M80.3,111.3c-5.2,0-10.1,0.2-15-0.1c-3.4-0.2-5.8-3.2-5.8-6.7c-0.1-10.4-0.1-20.9,0-31.3c0-4,3-6.9,7.1-6.9
		c13.8,0,27.5,0,41.3,0c4.2,0,7,2.9,7.1,7c0,3.2,0,6.4,0,9.7c0,0.2-0.1,0.3-0.2,0.7c-3.2,0-6.4,0-9.6,0c-4.7,0-9.4,0-14.1,0
		c-6.4,0-10.8,4.4-10.8,10.9c0,5,0,9.9,0,14.9C80.3,110.1,80.3,110.7,80.3,111.3z"/>
</g>
</svg>
