<?xml version="1.0" encoding="utf-8"?>
<!-- Generator: Adobe Illustrator 24.0.1, SVG Export Plug-In . SVG Version: 6.00 Build 0)  -->
<svg version="1.1" id="Layer_1" xmlns="http://www.w3.org/2000/svg" xmlns:xlink="http://www.w3.org/1999/xlink" x="0px" y="0px"
	 viewBox="0 0 198.6 198.6" style="enable-background:new 0 0 198.6 198.6;" xml:space="preserve">
<style type="text/css">
	.st0{fill:#FFFFFF;}
</style>
<path class="st0" d="M101.4,147c-13,0-26.1,0.2-39,0c-14.7-0.2-26.1-6.5-33.5-19.1c-13.3-22.8,0.9-52.2,27-56
	c1.1-0.2,1.7-0.6,2.4-1.6C68.5,53.2,83.7,45,103.6,46.4c20.2,1.4,37.3,16.6,41.6,36.4c0.3,1.7,1.4,1.6,2.5,1.7
	c12.5,2.1,21.2,8.9,25.3,20.9c6.5,18.3-5.5,38.3-24.8,41.3c-2.1,0.3-4.1,0.5-6.3,0.5C128.4,147,114.8,147,101.4,147z M102.2,134.3
	c13.3,0,26.6,0,39.8,0c1.3,0,2.5-0.2,3.8-0.3c8.9-1.1,15.8-8.9,16.3-17.7c0.3-9.3-5.8-17.5-14.9-19.1c-3.5-0.6-7.1-0.8-10.7-0.9
	c-1.1,0-1.7-0.3-1.9-1.6c-0.5-2.8-1.1-5.5-1.6-8.4c-2.8-13.8-13.8-24.5-27.3-27c-13.8-2.7-27.7,3.2-35.4,15
	c-1.7,2.5-2.8,5.4-4.4,7.9c-0.3,0.5-1.1,1.1-1.7,1.1c-1.7,0.3-3.6,0.5-5.4,0.6c-15.8,1.7-25.9,16.9-21.5,32.1
	c3.2,10.7,13,18,24.5,18C75.3,134.3,88.7,134.3,102.2,134.3z"/>
<path class="st0" d="M123.8,102.9c-5.2,0-10.3,0-15.5,0c0,6.3,0,12.5,0,18.8c-6.2,0-12,0-18.2,0c0-6.2,0-12.3,0-18.7
	c-5.4,0-10.4,0-15.3,0c8.2-8.2,16.4-16.4,24.5-24.5C107.2,86.3,115.4,94.5,123.8,102.9z"/>
</svg>
