<?xml version="1.0" encoding="utf-8"?>
<!-- Generator: Adobe Illustrator 24.0.1, SVG Export Plug-In . SVG Version: 6.00 Build 0)  -->
<svg version="1.1" id="Layer_1" xmlns="http://www.w3.org/2000/svg" xmlns:xlink="http://www.w3.org/1999/xlink" x="0px" y="0px"
	 viewBox="0 0 329 329" style="enable-background:new 0 0 329 329;" xml:space="preserve">
<style type="text/css">
	.st0{fill:#FFFFFF;}
</style>
<path class="st0" d="M186,164.8l91.5-91.5c6-6,6-15.6,0-21.5c-6-6-15.6-6-21.5,0l-91.5,91.5L73,51.7c-6-6-15.6-6-21.5,0
	c-6,6-6,15.6,0,21.5l91.5,91.5l-91.5,91.5c-6,6-6,15.6,0,21.5c3,3,6.9,4.5,10.8,4.5s7.8-1.5,10.8-4.5l91.5-91.5l91.5,91.5
	c3,3,6.9,4.5,10.8,4.5s7.8-1.5,10.8-4.5c6-6,6-15.6,0-21.5L186,164.8z"/>
</svg>
