<?xml version="1.0" encoding="utf-8"?>
<!-- Generator: Adobe Illustrator 24.0.1, SVG Export Plug-In . SVG Version: 6.00 Build 0)  -->
<svg version="1.1" id="Layer_1" xmlns="http://www.w3.org/2000/svg" xmlns:xlink="http://www.w3.org/1999/xlink" x="0px" y="0px"
	 viewBox="0 0 283.5 283.5" style="enable-background:new 0 0 283.5 283.5;" xml:space="preserve">
<style type="text/css">
	.st0{fill:#FFFFFF;}
</style>
<path class="st0" d="M104,227.9c-34.5-28.6-69-57.1-104-86.1C34.8,113,69.3,84.4,104.1,55.5c0.2,1.1,0.5,1.8,0.5,2.6
	c0,9.5,0,19-0.1,28.5c-0.1,2.9,1,3.9,3.9,4c27,1.1,53.1,6.2,77.9,17.2c43.4,19.3,75,50.2,92.4,94.9c1.6,4.1,2.9,8.4,4.8,13.5
	c-3.9-1.3-6.9-2.4-9.9-3.4c-16.3-5.1-32.5-10.7-49-15.2c-27.3-7.5-55.2-11.9-83.7-10.9c-10.6,0.4-21.1,1.9-31.7,2.9
	c-2.9,0.3-3.8,1.6-3.8,4.7c0.2,11,0.1,21.9,0.1,32.9C105,227.5,104.5,227.7,104,227.9z"/>
</svg>
