<?xml version="1.0" encoding="utf-8"?>
<!-- Generator: Adobe Illustrator 24.0.1, SVG Export Plug-In . SVG Version: 6.00 Build 0)  -->
<svg version="1.1" id="Layer_1" xmlns="http://www.w3.org/2000/svg" xmlns:xlink="http://www.w3.org/1999/xlink" x="0px" y="0px"
	 viewBox="0 0 198.6 198.6" style="enable-background:new 0 0 198.6 198.6;" xml:space="preserve">
<style type="text/css">
	.st0{fill:#FFFFFF;}
</style>
<path class="st0" d="M5.5,108.6c2.6-5.2,6.9-8.5,11.8-11.5c47.6-29,95-58.1,142.5-87.2c7.4-4.5,10-3.5,15,3.5
	c8.2,11.7,12.3,25.1,15.5,38.5c3.7,15.5-1.3,25.5-14.8,33.7c-11.8,7.2-23.6,14.5-35.7,21.9c5.4,12.5,9.2,25.7,23.3,33.1
	c4-4.1,8.6-8.8,13.1-13.5c2.8-3,5.9-5.2,10.2-3.4c4.3,1.8,4.9,5.4,4.9,9.6c-0.1,16.6-0.1,33.2,0,49.8c0,4-0.9,7.4-5,9
	c-3.9,1.6-6.8-0.2-9.5-2.9c-4.7-4.8-9.5-9.6-14.4-14.5c-1.6,1.4-2.7,2.5-3.9,3.6c-14.6,12.7-37.7,6.5-43-12.1
	c-2.4-8.4-6.9-15.1-11.8-21.8c-2.5-3.3-5.3-6.4-8.1-9.8c-4.2,2.5-7.7,5.5-11.9,7c-11.5,4.1-17.9,13.2-24.3,22.7
	c-5.3,7.8-7.8,8.2-15.9,3.4c-8.5-4.9-17-9.9-25.5-14.8c-6.4-3.8-7.3-6.8-4-13.5c1.2-2.4,2.4-4.9,3.2-6.5
	c-4.2-5.8-8.1-11.2-11.9-16.6C5.5,113.8,5.5,111.2,5.5,108.6z M59.3,127.4c6,4.7,10,5.1,15.7,1.7c31.4-19.2,62.8-38.5,94.3-57.7
	c5.9-3.6,7.4-7.3,5.7-14.8C136.4,80.2,97.9,103.8,59.3,127.4z"/>
</svg>
