<?xml version="1.0" encoding="utf-8"?>
<!-- Generator: Adobe Illustrator 24.0.1, SVG Export Plug-In . SVG Version: 6.00 Build 0)  -->
<svg version="1.1" id="Capa_1" xmlns="http://www.w3.org/2000/svg" xmlns:xlink="http://www.w3.org/1999/xlink" x="0px" y="0px"
	 viewBox="0 0 468 468" style="enable-background:new 0 0 468 468;" xml:space="preserve">
<style type="text/css">
	.st0{fill:#26EA26;}
</style>
<path class="st0" d="M352.7,234c0,65.6-53.2,118.7-118.7,118.7S115.3,299.6,115.3,234S168.4,115.3,234,115.3S352.7,168.4,352.7,234z
	 M234,140.8c-51.5,0-93.2,41.7-93.2,93.2s41.7,93.2,93.2,93.2s93.2-41.7,93.2-93.2S285.5,140.8,234,140.8z M234,174.8
	c-32.7,0-59.2,26.5-59.2,59.2s26.5,59.2,59.2,59.2s59.2-26.5,59.2-59.2S266.7,174.8,234,174.8z"/>
</svg>
