<?xml version="1.0" encoding="utf-8"?>
<!-- Generator: Adobe Illustrator 24.0.1, SVG Export Plug-In . SVG Version: 6.00 Build 0)  -->
<svg version="1.1" id="Layer_1" xmlns="http://www.w3.org/2000/svg" xmlns:xlink="http://www.w3.org/1999/xlink" x="0px" y="0px"
	 viewBox="0 0 691.4 281.1" style="enable-background:new 0 0 691.4 281.1;" xml:space="preserve">
<style type="text/css">
	.st0{fill:#DCDFDE;}
	.st1{fill:#3C56A5;}
</style>
<g>
	<path class="st0" d="M515.5,132.6c0,1.5,0,2.3,0,3.1c0,25.5,0,51.1,0.1,76.6c0,2-0.6,2.4-2.4,2.4c-12.1-0.1-24.3-0.1-36.4,0
		c-1.6,0-2.3-0.2-2.3-2.1c0.1-48.5,0.1-97.1,0-145.6c0-1.7,0.5-2,2.1-2c11.6,0.1,23.2,0.1,34.8,0c1.3,0,2.2,0.4,3,1.4
		c19.5,25.1,39.1,50.2,58.6,75.3c0.5,0.6,0.8,1.4,1.8,1.8c0-0.9,0-1.7,0-2.5c0-24.6,0-49.1,0-73.7c0-1.9,0.4-2.4,2.4-2.4
		c12.2,0.1,24.4,0.1,36.6,0c1.7,0,2.1,0.4,2.1,2.1c-0.1,48.5-0.1,97.1,0,145.6c0,1.7-0.4,2.1-2.1,2.1c-10.7-0.1-21.4-0.1-32.2,0
		c-1.7,0-2.7-0.5-3.7-1.8c-20.4-26.2-40.8-52.5-61.2-78.7C516.5,133.8,516.2,133.4,515.5,132.6z"/>
	<path class="st0" d="M215.3,217.7c-27.6-1-50.9-13.1-65.9-39.4c-7.8-13.7-10.4-28.7-9.3-44.4c1.2-16.7,6.8-31.5,17.6-44.3
		C170.1,74.8,186,66.1,205,63.1c15.9-2.5,31.6-1.2,46.6,5c12.3,5.1,22,13.3,29.9,23.9c0.7,0.9,0.7,1.3-0.2,2.1
		c-9.7,7.4-19.3,14.9-28.9,22.4c-1.2,1-1.7,0.5-2.4-0.4c-5.4-6.5-11.7-11.8-19.9-14.5c-20-6.3-39.9,4.5-45.5,25.1
		c-3.9,14.3-2.2,28,7,39.9c8,10.4,19,14.2,31.9,12.8c11.5-1.2,19.9-7.5,27-16c1.2-1.5,2.1-1.7,3.7-0.5c9.1,6.6,18.3,13.2,27.6,19.7
		c1.3,0.9,1.6,1.4,0.5,2.8c-11.1,14.8-25,25.4-43.3,29.8C231.9,216.9,224.6,217.5,215.3,217.7z"/>
	<path class="st0" d="M447.3,138.1c0,33-22.4,63.8-54.9,74c-28.6,9-54,2.1-75.7-18.3c-12.5-11.8-20.1-26.4-22.7-43.4
		c-3.1-20.9,2-39.9,14.5-56.9c2.9-4,8-4.2,11.5-0.8c5.1,5.1,10.2,10.2,15.3,15.3c2.5,2.5,3.1,6.1,1.2,9c-10,15.7-5.9,34.3,5.8,46.7
		c8.7,9.2,19.3,14.1,32.2,13.7c17-0.5,32.9-15.6,34.6-32.5c0.9-9.2-1.3-17.5-6.1-25.2c-2.6-4.2-2.3-7.4,1.3-11
		c5.4-5.4,10.7-10.7,16.1-16.1c4.1-4.1,9.1-3.7,12.5,1.1C442.3,106.8,447.3,122,447.3,138.1z"/>
	<path class="st0" d="M76,139.5c0-24,0-48.1-0.1-72.1c0-2.1,0.6-2.5,2.6-2.5c12.4,0.1,24.7,0.1,37.1,0c1.6,0,2.3,0.3,2.3,2.1
		c-0.1,48.5-0.1,97,0,145.5c0,1.7-0.5,2.1-2.1,2.1c-12.5-0.1-25-0.1-37.5,0c-1.9,0-2.3-0.6-2.3-2.4C76,188,76,163.7,76,139.5z"/>
	<path class="st1" d="M369.9,61.1c15.5,0.1,28.9,4.1,41.3,11.9c4.9,3.1,5.5,8.3,1.4,12.4c-5.7,5.8-11.5,11.5-17.2,17.2
		c-2.8,2.8-5.8,3.3-9.3,1.5c-11.3-5.6-22.6-6.3-34.2-0.9c-3,1.4-6,0.8-8.4-1.6c-5.4-5.3-10.7-10.6-15.9-15.9
		c-3.3-3.4-2.9-8.7,1.1-11.5c9.8-6.7,20.6-10.9,32.4-12.5C364.3,61.3,367.6,61.4,369.9,61.1z"/>
</g>
</svg>
